<svg width="16" height="16" viewBox="0 0 16 16" fill="none" xmlns="http://www.w3.org/2000/svg">
<g clip-path="url(#clip0_550538_341)">
<path d="M16 3.03894C15.405 3.29994 14.771 3.47294 14.11 3.55694C14.79 3.15094 15.309 2.51294 15.553 1.74394C14.919 2.12194 14.219 2.38894 13.473 2.53794C12.871 1.89694 12.013 1.49994 11.077 1.49994C9.261 1.49994 7.799 2.97394 7.799 4.78094C7.799 5.04094 7.821 5.29094 7.875 5.52894C5.148 5.39594 2.735 4.08894 1.114 2.09794C0.831 2.58894 0.665 3.15094 0.665 3.75594C0.665 4.89194 1.25 5.89894 2.122 6.48194C1.595 6.47194 1.078 6.31894 0.64 6.07794C0.64 6.08794 0.64 6.10094 0.64 6.11394C0.64 7.70794 1.777 9.03194 3.268 9.33694C3.001 9.40994 2.71 9.44494 2.408 9.44494C2.198 9.44494 1.986 9.43294 1.787 9.38894C2.212 10.6879 3.418 11.6429 4.852 11.6739C3.736 12.5469 2.319 13.0729 0.785 13.0729C0.516 13.0729 0.258 13.0609 0 13.0279C1.453 13.9649 3.175 14.4999 5.032 14.4999C11.068 14.4999 14.368 9.49994 14.368 5.16594C14.368 5.02094 14.363 4.88094 14.356 4.74194C15.007 4.27994 15.554 3.70294 16 3.03894Z" fill="#F4F4FD"/>
</g>
<defs>
<clipPath id="clip0_550538_341">
<rect width="16" height="16" fill="white"/>
</clipPath>
</defs>
</svg>
